<?xml version="1.0" encoding="UTF-8"?>
<svg id="Ebene_2" xmlns="http://www.w3.org/2000/svg" viewBox="0 0 590.99 100">
  <g id="Ebene_1-2" data-name="Ebene_1">
    <g>
      <path d="M173.66,74.92c0,.37-.37.56-1.12.56h-19.65v-2.53c0-.44.06-.83.19-1.17.12-.34.41-.58.84-.7,1.87-.56,3.18-1.08,3.93-1.54s1.18-1.29,1.31-2.48l4.96-47.72c.19-1.37-.2-2.35-1.17-2.95-.97-.59-2.45-1.14-4.44-1.64-.44-.19-.76-.41-.98-.65-.22-.25-.33-.59-.33-1.03v-3.09h21.43l18.25,50.72,17.12-50.72h21.05c.62,0,.94.16.94.47v3.74l-7.3,2.25,5.15,53.15,6.46,1.87v3.46c0,.37-.37.56-1.12.56h-24.14v-2.53c0-.44.08-.83.23-1.17.16-.34.45-.58.89-.7,1.75-.56,3.02-1.09,3.84-1.59.81-.5,1.15-1.34,1.03-2.53l-4.02-44.07-18.9,52.59h-9.17l-19.37-52.68-3.18,46.69,7.3,1.96v3.46Z"/>
      <path d="M271.92,27.95c0-.31.31-.47.94-.47h16.66v39.11c0,.81.22,1.37.65,1.68.44.31,1.59.72,3.46,1.22.62.13.94.53.94,1.22v2.71l-17.31,3.09.09-8.7c-2.37,2.68-4.96,4.82-7.77,6.41-2.81,1.59-5.77,2.39-8.89,2.39-4.06,0-7.28-1.23-9.68-3.7-2.4-2.46-3.6-6-3.6-10.62v-28.63l-5.52-2.34v-3.37c0-.31.31-.47.94-.47h16.75v31.35c0,3.06.65,5.3,1.96,6.74,1.31,1.43,3.18,2.15,5.61,2.15,1.75,0,3.45-.3,5.1-.89,1.65-.59,3.38-1.45,5.19-2.57v-30.6l-5.52-2.34v-3.37Z"/>
      <path d="M320.76,75.02c0,.31-.31.47-.94.47h-21.8v-2.62c0-.87.34-1.43,1.03-1.68,1.56-.5,2.63-1.01,3.23-1.54.59-.53.89-1.26.89-2.2V14.38c0-.75-.22-1.29-.65-1.64-.44-.34-1.59-.73-3.46-1.17-.69-.19-1.03-.59-1.03-1.22v-2.81l17.5-3.37-.28,8.8v56.89l5.52,1.78v3.37Z"/>
      <path d="M321.69,33.1v-5.61h6.27l7.77-13.76h3.93v13.76h12.16v6.83c-1.56-.19-3.34-.36-5.33-.51-2-.16-4.27-.26-6.83-.33v26.85c0,2.99.42,5.18,1.26,6.55s2.23,2.06,4.16,2.06c1.12,0,2.28-.2,3.46-.61,1.18-.41,2.25-.89,3.18-1.45l2.34,3.74c-1.68,1.87-3.88,3.34-6.6,4.4-2.71,1.06-5.51,1.59-8.37,1.59-3.37,0-6.15-1.08-8.33-3.23-2.18-2.15-3.28-5.66-3.28-10.53v-29.76h-5.8Z"/>
      <path d="M378.21,75.02c0,.31-.31.47-.94.47h-21.8v-2.62c0-.87.34-1.43,1.03-1.68,1.56-.5,2.63-1,3.23-1.5.59-.5.89-1.22.89-2.15v-31.16c0-.75-.22-1.28-.65-1.59-.44-.31-1.59-.69-3.46-1.12-.69-.19-1.03-.59-1.03-1.22v-2.71l17.5-3.37-.28,8.61v34.9l5.52,1.78v3.37ZM366.51,19.53c-1.37,0-2.61-.31-3.7-.94-1.09-.62-1.97-1.48-2.62-2.57-.65-1.09-.98-2.29-.98-3.6s.33-2.4.98-3.46c.65-1.06,1.53-1.9,2.62-2.53,1.09-.62,2.32-.94,3.7-.94s2.59.31,3.65.94c1.06.62,1.89,1.47,2.48,2.53.59,1.06.89,2.22.89,3.46,0,1.31-.3,2.51-.89,3.6-.59,1.09-1.42,1.95-2.48,2.57-1.06.62-2.28.94-3.65.94Z"/>
      <path d="M426.77,74.92c0,.37-.37.56-1.12.56h-26.67v-2.53c0-.44.09-.83.28-1.17.19-.34.5-.58.94-.7,1.81-.56,3.09-1.11,3.84-1.64.75-.53,1.12-1.32,1.12-2.38V18.59c0-1.12-.37-1.95-1.12-2.48s-2.03-1.04-3.84-1.54c-.44-.19-.75-.45-.94-.79s-.28-.7-.28-1.08v-2.71h6.74c1.18,0,2.68-.03,4.49-.09,1.81-.06,3.84-.12,6.08-.19,2.25-.06,4.62-.09,7.11-.09,8.98,0,15.73,1.68,20.26,5.05,4.52,3.37,6.78,8.17,6.78,14.41,0,4.49-1.17,8.34-3.51,11.56-2.34,3.21-5.66,5.68-9.96,7.39-4.3,1.72-9.36,2.57-15.16,2.57-.62,0-1.26-.01-1.92-.05-.65-.03-1.3-.08-1.92-.14v19.09l8.8,1.96v3.46ZM422.84,15.22c-.81,0-1.62.03-2.43.09-.81.06-1.62.16-2.43.28v28.54c.81.25,1.73.47,2.76.65s2.11.28,3.23.28c2.37,0,4.55-.55,6.55-1.64,2-1.09,3.6-2.77,4.82-5.05,1.22-2.28,1.82-5.22,1.82-8.84,0-3.37-.53-6.1-1.59-8.19-1.06-2.09-2.65-3.63-4.77-4.63-2.12-1-4.77-1.5-7.95-1.5Z"/>
      <path d="M488.25,76.61c-2.31,0-4.24-.59-5.8-1.78-1.56-1.18-2.59-2.99-3.09-5.43-1.62,2.31-3.74,4.09-6.36,5.33s-5.27,1.87-7.95,1.87c-3.81,0-6.92-1.15-9.36-3.46-2.43-2.31-3.65-5.49-3.65-9.54,0-3.49,1.03-6.24,3.09-8.23s4.88-3.43,8.47-4.31c3.59-.87,7.69-1.31,12.3-1.31h2.9v-7.95c0-2.87-.41-5.04-1.22-6.5-.81-1.47-1.9-2.46-3.28-2.99-1.37-.53-2.9-.8-4.58-.8-.94,0-1.89.05-2.85.14-.97.09-1.89.26-2.76.51-.19,1.43-.47,2.96-.84,4.58-.37,1.62-.84,3.03-1.4,4.21-.19.5-.42.84-.7,1.03-.28.19-.64.28-1.08.28h-4.02l-1.4-11.6c1.75-.94,3.63-1.71,5.66-2.34,2.03-.62,4.16-1.11,6.41-1.45,2.25-.34,4.52-.51,6.83-.51,4.37,0,7.83.62,10.39,1.87,2.56,1.25,4.37,3.06,5.43,5.43,1.06,2.37,1.59,5.18,1.59,8.42v23.21c0,1.37.3,2.33.89,2.85.59.53,1.36.79,2.29.79.5,0,.97-.05,1.4-.14.44-.09.84-.3,1.22-.61l1.96,3.37c-1.06,1.56-2.54,2.79-4.44,3.7-1.9.9-3.91,1.36-6.03,1.36ZM463.08,62.1c0,2,.59,3.68,1.78,5.05,1.18,1.37,3.06,2.06,5.61,2.06,1.5,0,2.98-.26,4.44-.79,1.47-.53,2.76-1.2,3.88-2.01v-12.17h-2.62c-4.3,0-7.56.7-9.78,2.11-2.22,1.4-3.32,3.32-3.32,5.75Z"/>
      <path d="M546.36,81.47c0,3.93-1.3,7.28-3.88,10.06-2.59,2.77-5.99,4.88-10.2,6.32-4.21,1.43-8.81,2.15-13.8,2.15-3.56,0-6.82-.45-9.78-1.36-2.96-.91-5.32-2.25-7.06-4.02-1.75-1.78-2.62-3.98-2.62-6.6s.8-5.1,2.39-7.07c1.59-1.96,3.66-3.63,6.22-5.01-1.62-.75-2.9-1.73-3.84-2.95s-1.4-2.76-1.4-4.63.39-3.49,1.17-4.87c.78-1.37,1.81-2.56,3.09-3.56,1.28-1,2.7-1.81,4.26-2.43-2.93-1.31-5.24-3.21-6.92-5.71-1.68-2.49-2.53-5.39-2.53-8.7s.89-6.11,2.67-8.61,4.23-4.48,7.35-5.94c3.12-1.47,6.67-2.2,10.67-2.2,5.8,0,10.45,1.44,13.94,4.3.69-1.18,1.67-2.18,2.95-2.99,1.28-.81,2.7-1.47,4.26-1.96,1.56-.5,3.03-.87,4.4-1.12.37.75.64,1.76.79,3.04.16,1.28.2,2.56.14,3.84-.06,1.28-.28,2.42-.65,3.41-1.19-.25-2.61-.44-4.26-.56-1.65-.12-3.29-.19-4.91-.19.87,1.12,1.57,2.45,2.11,3.98.53,1.53.79,3.17.79,4.91,0,3.18-.89,6.02-2.67,8.52-1.78,2.49-4.23,4.46-7.35,5.89-3.12,1.44-6.71,2.15-10.76,2.15-2.18,0-4.21-.28-6.08-.84-.69.5-1.25,1.11-1.68,1.83-.44.72-.65,1.51-.65,2.38,0,1.19.41,2.14,1.22,2.85.81.72,2.14,1.23,3.98,1.54,1.84.31,4.32.56,7.44.75,4.43.25,8.23.78,11.42,1.59,3.18.81,5.61,2.14,7.3,3.98,1.68,1.84,2.53,4.45,2.53,7.81ZM507.62,85.03c0,3.12,1.31,5.44,3.93,6.97s6.08,2.29,10.39,2.29c4.55,0,8.12-.73,10.71-2.2,2.59-1.47,3.88-3.48,3.88-6.04,0-1.75-.51-3.12-1.54-4.12-1.03-1-2.73-1.78-5.1-2.34-2.37-.56-5.52-.94-9.45-1.12-1.68-.12-3.28-.28-4.77-.47s-2.9-.44-4.21-.75c-1.25.87-2.2,1.98-2.85,3.32-.65,1.34-.98,2.82-.98,4.44ZM521.94,55.08c2.81,0,4.87-.97,6.18-2.9,1.31-1.93,1.96-4.52,1.96-7.77,0-4.74-.84-8.2-2.53-10.39-1.68-2.18-3.84-3.27-6.46-3.27-2.37,0-4.3.98-5.8,2.95-1.5,1.97-2.25,4.63-2.25,8,0,3.06.39,5.58,1.17,7.58.78,2,1.86,3.46,3.23,4.4,1.37.94,2.87,1.4,4.49,1.4Z"/>
      <path d="M590.9,69.21c-1.25,1.68-2.87,3.07-4.87,4.16-2,1.09-4.16,1.9-6.5,2.43-2.34.53-4.73.8-7.16.8-4.43,0-8.34-1.03-11.74-3.09-3.4-2.06-6.05-4.99-7.95-8.8-1.9-3.8-2.85-8.3-2.85-13.48,0-4.8.94-9.09,2.81-12.87,1.87-3.77,4.49-6.72,7.86-8.84,3.37-2.12,7.27-3.18,11.7-3.18,4.18,0,7.66.83,10.43,2.48,2.77,1.65,4.86,3.96,6.27,6.93,1.4,2.96,2.1,6.41,2.1,10.34,0,.62-.02,1.23-.05,1.82-.03.59-.11,1.3-.23,2.11-1.62.37-3.63.7-6.04.98-2.4.28-4.98.51-7.72.7-2.74.19-5.41.33-8,.42s-4.91.14-6.97.14c.56,5.49,2.15,9.67,4.77,12.54,2.62,2.87,6.14,4.3,10.57,4.3,2.31,0,4.43-.3,6.36-.89,1.93-.59,3.56-1.39,4.87-2.39l2.34,3.37ZM571.34,31.5c-2.87,0-5.18,1.34-6.92,4.02-1.75,2.68-2.65,6.74-2.71,12.17l17.97-1.78c.31-2.74.22-5.19-.28-7.35-.5-2.15-1.42-3.87-2.76-5.15-1.34-1.28-3.1-1.92-5.29-1.92Z"/>
    </g>
    <path d="M115.28,0h-42.25c-4.6,0-9.08,1.88-12.3,5.16-.44.45-.84.92-1.23,1.4-.38-.48-.79-.95-1.23-1.4-3.22-3.28-7.71-5.16-12.3-5.16H3.72C1.66,0,0,1.66,0,3.72v78.89c0,2.05,1.66,3.72,3.72,3.72h52.06v13.67h7.44v-13.67h52.06c2.05,0,3.72-1.66,3.72-3.72V3.72c0-2.05-1.66-3.72-3.72-3.72ZM7.44,7.44h38.53c2.61,0,5.16,1.07,7,2.93,1.81,1.85,2.81,4.29,2.81,6.88v61.64H7.44V7.44ZM111.56,78.89h-48.34V17.25c0-2.59,1-5.03,2.81-6.88,1.83-1.86,4.38-2.93,7-2.93h38.53v71.45Z"/>
  </g>
</svg>